<svg width="800" height="800" xmlns="http://www.w3.org/2000/svg"><polygon points="500.0,600.0 400.0,400.0 600.0,400.0 " stroke="#ff4136" stroke-width="5" fill="#ff4136" fill-opacity="0.2"/><polygon points="400.0,400.0 600.0,400.0 450.0,500.0 " stroke="#ff851b" stroke-width="5" fill="#ff851b" fill-opacity="0.2"/><path d="M 415.0 430.0 A 37.26779962499649 37.26779962499649 0 0 0 433.54101966249686 400.0" stroke="#ff4136" stroke-width="5" fill="none"/><path d="M 540.0 400.0 A 66.66666666666667 66.66666666666667 0 0 0 573.1671842700025 453.665631459995" stroke="#39cccc" stroke-width="5" fill="none"/><line x1="400.0" y1="400.0" x2="600.0" y2="400.0" stroke="#0074d9" stroke-width="5"/><line x1="400.0" y1="400.0" x2="450.0" y2="500.0" stroke="#7fdbff" stroke-width="5"/><line x1="500.0" y1="600.0" x2="400.0" y2="400.0" stroke="#f012be" stroke-width="5"/><line x1="600.0" y1="400.0" x2="450.0" y2="500.0" stroke="#2ecc40" stroke-width="5"/><line x1="500.0" y1="600.0" x2="600.0" y2="400.0" stroke="#3d9970" stroke-width="5"/><circle cx="500.0" cy="600.0" r="8.0" fill="#b10dc9"/><text x="510.0" y="590.0" font-family="Verdana" font-size="20">A</text><circle cx="400.0" cy="400.0" r="8.0" fill="#01ff70"/><text x="410.0" y="390.0" font-family="Verdana" font-size="20">B</text><circle cx="450.0" cy="500.0" r="8.0" fill="#aaaaaa"/><text x="460.0" y="490.0" font-family="Verdana" font-size="20">D</text><circle cx="600.0" cy="400.0" r="8.0" fill="#85144b"/><text x="610.0" y="390.0" font-family="Verdana" font-size="20">C</text></svg>